<?xml version="1.0" encoding="utf-8"?>
<!-- Generator: Adobe Illustrator 24.1.2, SVG Export Plug-In . SVG Version: 6.00 Build 0)  -->
<svg version="1.1" xmlns="http://www.w3.org/2000/svg" xmlns:xlink="http://www.w3.org/1999/xlink" x="0px" y="0px"
	 viewBox="0 0 328.18 350.16" style="enable-background:new 0 0 328.18 350.16;" xml:space="preserve">
<style type="text/css">
	.st0{opacity:0.18;}
	.st1{display:none;opacity:0.87;}
	.st2{fill:#FFFFFF;}
	.st3{fill:#E51727;}
	.st4{opacity:0.81;fill:#FFFFFF;}
	.st5{opacity:0.08;}
	.st6{display:none;opacity:0.4;}
	.st7{display:inline;opacity:0.5;}
	.st8{display:none;fill:#F75267;}
	.st9{fill:#1A171B;}
	.st10{opacity:0.7;fill:#FFFFFF;}
	.st11{fill:#84DEF4;}
	.st12{opacity:0.12;}
	.st13{fill:#1D6377;}
	.st14{opacity:0.32;}
	.st15{opacity:0.17;}
	.st16{opacity:0.27;}
	.st17{fill:#6BA3B2;}
	.st18{opacity:0.3;fill:#FFFFFF;}
	.st19{opacity:0.22;fill:#FFFFFF;}
</style>
<g id="Ebene_1">
	<g id="Layer_7_1_">
		<g>
			<path d="M238.57,152.8c9.4,5.45,18.46,11.31,27.3,17.56c4.42,3.13,8.72,6.46,12.92,9.89c4.2,3.43,8.28,6.96,12.25,10.79
				c1.98,1.97,3.86,3.93,5.63,6c1.76,2.17,3.53,4.33,4.96,7c0.66,1.28,1.42,2.77,1.74,4.66c0.33,1.68,0.25,3.44-0.15,5.09
				c-0.79,3.39-2.69,6.1-4.98,8.17c-2.29,2.17-4.76,3.71-7.42,4.93c-2.66,1.32-5.31,2.23-8.15,2.92
				c-5.47,1.39-11.12,2.05-16.73,2.08l0.15-7.27c5.08,0.35,10.18,0.19,15.12-0.92c4.83-1.01,9.61-2.96,13.08-6.01
				c1.63-1.48,2.87-3.39,3.38-5.24c0.25-0.92,0.2-1.86,0.04-2.91c-0.17-0.84-0.54-1.79-1.11-2.86c-1.15-2.03-2.71-4.08-4.38-6.04
				c-1.67-1.95-3.45-3.81-5.33-5.67c-3.77-3.62-7.76-7.04-11.86-10.36c-4.1-3.22-8.42-6.34-12.84-9.37
				c-8.75-5.94-18.63-10.84-28.06-15.77L238.57,152.8z"/>
		</g>
		<path d="M255.74,163.58c-17.99-12.46-29.16-37.79-29.16-37.79l16.99,48.88c0,0-1.4-8.49,1.81-8.12c3.93,0.4,9.26,3.99,9.26,3.99
			L255.74,163.58z"/>
	</g>
	<g>
		<path class="st2" d="M90.32,221.44c-15.34,51.71-11.56,111.81,7.64,111.48c24.73-0.42,54.58-47.01,77.69-47.03
			c23.03-0.03,51.6,43.98,72.06,44.5c16.63,0.42,24.16-48.82,11.08-101.32c-11.51-46.2-31.14-90.94-35.85-122.03
			c-6.04-39.93-5.71-78.2-10.57-78.85c-6.33-0.84-40.88,22.59-80.63,93.24C106.23,166.78,99.12,191.74,90.32,221.44z"/>
		<path d="M92.75,222.16c-2.47,8.37-4.43,16.9-6,25.49c-1.55,8.6-2.73,17.28-3.35,26.01c-0.62,8.72-0.75,17.48-0.09,26.17
			c0.33,4.34,0.9,8.66,1.81,12.88c0.92,4.2,2.17,8.36,4.18,12c1,1.8,2.21,3.47,3.68,4.67c1.46,1.22,3.17,1.88,4.97,1.82
			c4.04-0.12,8.09-1.53,11.84-3.5c3.77-1.97,7.34-4.44,10.76-7.11c3.43-2.67,6.74-5.53,10.03-8.45c6.58-5.83,13-11.93,20.03-17.57
			c3.55-2.77,7.25-5.45,11.38-7.67c2.08-1.08,4.24-2.08,6.58-2.8c2.32-0.73,4.84-1.2,7.42-1.15c2.57,0.05,5.03,0.56,7.34,1.31
			c2.31,0.76,4.49,1.72,6.53,2.85c4.11,2.24,7.81,4.9,11.32,7.73c7.01,5.66,13.38,11.82,19.9,17.71c3.27,2.93,6.54,5.83,10.01,8.44
			c3.45,2.59,7.07,5.01,10.95,6.5c1.92,0.74,3.94,1.23,5.86,1.26c1.77,0.01,3.47-0.76,4.91-2.04c1.45-1.28,2.66-2.96,3.67-4.78
			c1.02-1.82,1.84-3.78,2.55-5.8c1.43-4.03,2.33-8.29,3-12.58c0.66-4.29,1.06-8.64,1.27-12.99c0.4-8.72,0.04-17.48-0.78-26.18
			c-0.8-8.71-2.23-17.35-3.98-25.92c-1.78-8.54-4.08-17.05-6.46-25.51c-4.61-16.98-10.04-33.78-15.37-50.63
			c-2.66-8.43-5.3-16.87-7.72-25.39c-2.41-8.52-4.63-17.11-6.2-25.85c-0.76-4.39-1.3-8.76-1.87-13.15
			c-0.56-4.39-1.07-8.78-1.53-13.18c-0.9-8.79-1.69-17.6-2.47-26.39c-0.39-4.4-0.78-8.8-1.24-13.18c-0.49-4.37-0.93-8.79-1.96-12.97
			c-0.27-1.01-0.6-2.08-1.09-2.8c-0.12-0.17-0.25-0.3-0.33-0.35c-0.04-0.03-0.06-0.03-0.08-0.03c-0.07,0-0.17-0.02-0.27-0.01
			c-0.42,0.01-0.91,0.12-1.39,0.26c-1.96,0.62-3.88,1.7-5.71,2.83c-3.68,2.31-7.12,5.05-10.43,7.92
			c-6.63,5.74-12.74,12.1-18.52,18.73c-5.78,6.64-11.21,13.58-16.39,20.7c-10.32,14.27-19.77,29.21-27.97,44.82
			c-8.34,15.53-16.05,31.4-22.49,47.73C102.62,188.35,97.62,205.17,92.75,222.16z M87.88,220.72c2.57-8.45,5.13-16.93,7.95-25.35
			c2.79-8.43,5.99-16.74,9.47-24.91c6.97-16.36,15.29-32.05,24.13-47.38c4.38-7.69,9.1-15.18,13.75-22.71
			c4.71-7.49,9.64-14.85,14.85-22.01c5.2-7.16,10.67-14.15,16.49-20.83c5.83-6.68,11.98-13.1,18.71-18.92
			c3.39-2.88,6.9-5.63,10.73-7.99c1.93-1.16,3.89-2.27,6.16-2.97c0.58-0.16,1.17-0.3,1.86-0.31c0.18,0,0.35,0.01,0.55,0.04
			c0.26,0.04,0.5,0.14,0.69,0.26c0.39,0.24,0.63,0.54,0.83,0.82c0.73,1.13,1.01,2.24,1.31,3.34c1.04,4.42,1.43,8.82,1.89,13.22
			c0.42,4.41,0.78,8.81,1.14,13.21c0.71,8.8,1.42,17.6,2.39,26.37c0.96,8.76,2.02,17.55,3.6,26.19c1.64,8.63,4.09,17.11,6.71,25.52
			c2.65,8.41,5.53,16.74,8.44,25.08c5.83,16.67,11.75,33.34,16.91,50.31c2.43,8.53,4.84,17.06,6.63,25.83
			c1.83,8.73,3.02,17.59,3.74,26.48c0.7,8.89,0.82,17.84,0.22,26.76c-0.61,8.91-1.87,17.85-4.83,26.47
			c-0.77,2.15-1.65,4.27-2.79,6.31c-1.13,2.03-2.52,4.01-4.39,5.65c-1.83,1.64-4.39,2.87-7.08,2.85c-2.51-0.01-4.85-0.58-7.05-1.38
			c-4.4-1.65-8.26-4.11-11.94-6.69c-3.66-2.62-7.16-5.39-10.59-8.22c-6.85-5.65-13.45-11.51-20.41-16.67
			c-3.49-2.54-7.03-5-10.74-6.88c-3.68-1.9-7.56-3.31-11.28-3.34c-3.67-0.07-7.55,1.3-11.21,3.21c-3.69,1.91-7.25,4.32-10.7,6.92
			c-6.96,5.16-13.58,11-20.44,16.63c-3.43,2.82-6.92,5.6-10.56,8.22c-3.66,2.6-7.42,5.11-11.54,7.13c-4.1,1.99-8.59,3.62-13.43,3.7
			c-2.64,0.07-5.28-1.02-7.2-2.63c-1.96-1.6-3.36-3.6-4.51-5.64c-1.16-2.05-2.02-4.19-2.76-6.35c-0.75-2.16-1.35-4.35-1.86-6.55
			c-1.01-4.4-1.64-8.86-2.11-13.31c-0.9-8.91-0.99-17.86-0.56-26.77C79.88,255.58,82.77,237.85,87.88,220.72z"/>
	</g>
	<path d="M111.27,161.28c0,0,25.46,7.73,63.83,8.91c46.15,1.42,65.15-3.59,65.15-3.59s-15.1-40.42-18.15-66.09
		c-3.8-32.05-6.16-65.61-7.36-68.3c-1.2-2.69-0.93-3.35-4.21-3.88c-1.78-0.29-18.74,10.6-34.15,28.97
		C159.06,77.96,145.63,93.15,111.27,161.28z"/>
	<g>
		<path class="st3" d="M133.6,165.72c-3.3,17.79,14.41,34.34,45.95,34.65s47.01-13.12,48.05-30.28c1.04-17.2-15-34.61-45.79-35.39
			C148.65,133.86,136.27,151.36,133.6,165.72z"/>
		<path d="M134.79,165.94c-0.42,2.5-0.42,5.05,0.02,7.52c0.44,2.47,1.37,4.85,2.62,7.03c2.5,4.4,6.46,7.88,10.85,10.49
			c4.42,2.61,9.32,4.41,14.37,5.56c5.05,1.18,10.26,1.68,15.46,1.81c5.22,0.12,10.47-0.15,15.59-0.94
			c5.13-0.74,10.15-2.09,14.82-4.15c4.63-2.09,8.93-4.99,12.1-8.91c3.2-3.88,5.15-8.74,5.64-13.82c0.53-5.05-0.56-10.27-3.04-14.79
			c-2.43-4.56-6.16-8.39-10.45-11.35c-4.31-2.96-9.19-5.07-14.25-6.47c-5.06-1.42-10.33-2.16-15.6-2.34
			c-5.28-0.2-10.58,0.08-15.76,0.99c-5.17,0.92-10.22,2.57-14.78,5.09c-4.55,2.52-8.59,5.95-11.6,10.16
			C137.74,155.98,135.71,160.87,134.79,165.94z M132.41,165.5c1.06-5.41,3.3-10.59,6.6-14.99c3.27-4.43,7.62-8,12.43-10.58
			c4.82-2.57,10.08-4.2,15.42-5.08c5.33-0.9,10.75-1.15,16.12-0.92c5.38,0.24,10.76,0.93,15.98,2.38
			c5.21,1.42,10.27,3.58,14.78,6.64c2.26,1.52,4.38,3.26,6.29,5.23c1.89,1.98,3.57,4.18,4.95,6.56c2.77,4.76,4.21,10.38,3.86,15.97
			c-0.29,5.55-2.23,11.12-5.65,15.62c-3.38,4.55-8.04,8-13.05,10.38c-2.51,1.21-5.12,2.17-7.77,2.93c-2.65,0.77-5.34,1.36-8.05,1.76
			c-5.43,0.81-10.88,1.05-16.31,0.89c-2.73-0.06-5.45-0.28-8.16-0.66c-2.71-0.35-5.4-0.89-8.06-1.57c-5.31-1.34-10.5-3.4-15.18-6.38
			c-4.65-2.97-8.86-6.9-11.58-11.85c-1.34-2.47-2.33-5.16-2.77-7.95C131.82,171.11,131.88,168.25,132.41,165.5z"/>
	</g>
	<path class="st4" d="M168.85,141.07c11.94-2.08,24.04,0.32,27.14,7.4c2.76,6.3-5.83,12.98-19.03,14.23s-23.43-1.58-24.78-7.29
		C150.85,149.78,156.26,143.26,168.85,141.07z"/>
	<path class="st5" d="M82.36,306c0,0,4.18,5.89,15.5,7.48c18.23,2.57,44.09-41.62,74.18-42.03c17.6-0.24,28.02,16.07,51.51,14.01
		c16.47-1.44,17.98-16.71,17.5-39.88c-0.44-20.97-11.77-46.48-11.77-46.48s-12.91,13.01-44.12,13.33
		c-42.63,0.44-50.78-27.01-50.78-27.01s25.81,9.46,55.99,1.46c29.47-7.81,26.98-40.47,26.98-40.47l18.3,9.2
		c0,0,17.14,45.01,22.85,69.04c5.71,24.03,7.91,40.25,7.91,60.35c0,20.1-3.82,43.96-13.19,45.44c-19.34,3.06-54.94-44.13-79.11-43.7
		c-16.26,0.29-54.73,41.06-71.43,45.86S82.36,306,82.36,306z"/>
	<g id="Ebene_20_1_">
		<path d="M271.29,224.89c-5.79-0.7-11.96-12.44-20.68-17.03c-10.23-5.49-19.53-0.24-18.06,3.58c2.01,5.5,11.56,1.61,14.93,2.82
			c6.53,2.4,9.78,8.28,9.78,8.28s-4.85-4.92-13.22-5.85c-8.37-0.93-18.84,6.87-15.26,10.06c6.37,5.72,10.76-3.11,16.45-2.72
			c8.6,0.63,12.74,5.1,12.74,5.1s-5.35-1.2-11.15,0.49c-5.7,1.69-10.18,10.31-6.29,11.64c5.31,1.93,5.77-5.33,10.19-6.46
			c6.22-1.67,7.98,2.68,12.98,2.3c5.01-0.38,8.65-6.85,8.65-6.85L271.29,224.89z"/>
	</g>
	<path class="st8" d="M192.28,140.32c0,0-7.07-1.38-18.97-0.52c-11.9,0.86-22.25,5.17-22.25,5.17s8.28,1.38,18.62,0.52
		S192.28,140.32,192.28,140.32z"/>
	<path class="st8" d="M140.89,154.98c0,0-2.76,3.62-3.62,7.93c-0.86,4.31,1.03,8.1,1.03,8.1s2.41-7.76,2.59-10.35
		C141.07,158.08,140.89,154.98,140.89,154.98z"/>
	<path class="st3" d="M153,144.81c0,0,10.6,2.34,22.3,2.03c11.7-0.31,21.21-1.4,21.21-1.4l1.4,4.99l-46.32-1.72L153,144.81z"/>
</g>
<g id="Ebene_2">
	<path d="M105.18,172.37c0,0,2.63-12.37-3.12-8.52c-5.63,3.76-22.2,19.13-34.58,18.25c-18.32-1.29-19.84-43.15-19.84-43.15
		l10.69-15.25c0,0-2.9,47.78,10.36,49.14c11.52,1.19,29.76-14.3,38.08-22.59c17.3-17.22,26.54-33.33,26.54-33.33L105.18,172.37z"/>
	<path d="M48.86,123.97c0,0-14.47-30.22-2.06-48.02c7.9-11.35,24.62-8.05,24.07,0.26c-0.36,5.45-4.61,6.6-9.34,18.78
		c-2.23,5.74-1.68,15.38-0.68,22.27c1.53,10.61-3.39,17.72-3.39,17.72c-2.16,11.25-4.42,13.01-13.01,16.14
		c-9.49,3.46-15.99-2.82-15.99-2.82l9.3-22.66"/>
	<path d="M48.86,123.97c0,0-14.47-30.22-2.06-48.02c7.9-11.35,24.62-8.05,24.07,0.26c-0.36,5.45-4.61,6.6-9.34,18.78
		c-2.23,5.74-1.68,15.38-0.68,22.27c1.53,10.61-3.39,17.72-3.39,17.72c-2.16,11.25-4.42,13.01-13.01,16.14
		c-9.49,3.46-15.99-2.82-15.99-2.82l9.3-22.66"/>
	<path class="st9" d="M30.42,138.67c9.52-2.18,20.44-0.58,20.03,9.47c-0.39,9.67-17.81,6.39-22.19,2.39
		C24.64,147.23,23.42,140.28,30.42,138.67z"/>
	<path class="st10" d="M51.24,147.22c-0.08-2.22-0.83-4.55-2.42-6.21c-1.56-1.68-3.67-2.64-5.77-3.16
		c-2.12-0.51-4.28-0.63-6.41-0.53c-2.13,0.11-4.24,0.44-6.31,0.94c-0.13,0.03-0.27,0.08-0.4,0.11l-1.36,1.36
		c0.62-0.3,1.28-0.51,1.95-0.65c2.03-0.43,4.09-0.69,6.15-0.74c2.06-0.04,4.12,0.14,6.07,0.67c1.94,0.53,3.78,1.47,5.05,2.92
		c1.29,1.44,1.86,3.37,1.89,5.33l0,0c0.16,1.47-0.04,2.91-0.86,4.08l0.13,1.3c0.07-0.06,0.14-0.11,0.21-0.17
		c0.72-0.64,1.29-1.49,1.62-2.41C51.13,149.14,51.21,148.14,51.24,147.22L51.24,147.22z"/>
	<path class="st9" d="M27.71,106.89c10.15-4.83,30.87,0.63,30.11,12.71c-0.69,11.07-22.31,4.97-28.26,3.21
		C21.95,120.55,20.24,110.44,27.71,106.89z"/>
	<path class="st10" d="M58.63,118.7c-0.04-1.02-0.25-2.03-0.58-2.98c-0.68-1.92-1.92-3.56-3.37-4.85c-1.46-1.31-3.13-2.31-4.86-3.12
		c-2.19-1.01-4.49-1.7-6.84-2.14c0.03,0.14,0.05,0.28,0.08,0.42c2.24,0.54,4.41,1.32,6.43,2.39c1.63,0.88,3.16,1.94,4.43,3.24
		c1.28,1.29,2.27,2.83,2.77,4.51c0.24,0.84,0.38,1.7,0.36,2.57c0,0.88-0.12,1.72-0.42,2.47c-0.57,1.53-1.93,2.49-3.52,3.1
		c-1.6,0.61-3.43,0.81-5.24,0.86c-1.68,0.03-3.38-0.08-5.07-0.28l-5.04,0.76l-0.02,0.04c1.45,0.32,2.91,0.6,4.39,0.82
		c1.89,0.27,3.81,0.46,5.76,0.46c1.94-0.01,3.93-0.17,5.89-0.84c1.95-0.61,3.84-2.23,4.49-4.33C58.6,120.76,58.68,119.7,58.63,118.7
		z"/>
	<path class="st9" d="M23.51,123.92c9.38-4.89,33.33-1.03,32.11,9.77c-1.5,13.3-25.01,6.86-30.36,4.16
		C19.61,135.01,17.46,127.07,23.51,123.92z"/>
	<path class="st10" d="M56.36,132.32c-0.09-1.04-0.42-2.07-0.93-2.96c-1.03-1.8-2.63-3.09-4.3-4.07c-1.68-0.99-3.49-1.69-5.32-2.24
		c-3.68-1.08-7.49-1.54-11.29-1.54c-1.9,0.01-3.8,0.16-5.68,0.49c-0.31,0.07-0.61,0.13-0.92,0.19l0.14,0.49
		c0.29-0.06,0.57-0.13,0.87-0.17c1.85-0.28,3.72-0.38,5.59-0.35c3.74,0.07,7.48,0.65,11,1.83c1.76,0.59,3.47,1.33,5,2.31
		c1.53,0.97,2.91,2.21,3.71,3.73c0.83,1.53,0.88,3.26,0.37,4.96c-0.46,1.67-1.48,3.09-2.92,4.04c-1.42,0.97-3.16,1.51-4.95,1.83
		c-1.79,0.32-3.65,0.39-5.5,0.33c-3.72-0.11-7.45-0.72-11.07-1.71c-0.34-0.1-0.68-0.2-1.02-0.31l-0.3,0.3c0.4,0.14,0.8,0.27,1.2,0.4
		c3.6,1.16,7.31,2.05,11.12,2.43c1.91,0.17,3.84,0.2,5.78-0.03c1.93-0.25,3.9-0.78,5.63-1.92c1.72-1.12,3.04-2.96,3.5-4.96
		C56.31,134.39,56.46,133.38,56.36,132.32z"/>
</g>
<g id="Ebene_3">
	<path class="st5" d="M139.86,177.99l-9.33,11.21l-15.34-7.23c0,0,13.01,12.32,21.43,16.67c8.42,4.36,13.34,3.97,13.34,3.97
		L139.86,177.99z"/>
	<path class="st11" d="M143.11,145.36c0,0-0.06,18.63-3.28,30.68c-2.57,9.62-6.79,16.81-6.79,16.81s18,12.03,44.99,12.39
		s48.65-12.08,48.65-12.08s-1.74-16.52-2.82-22.79c-1.97-11.41-6.51-23.96-6.51-23.96s-7.94,1.67-30.32,2.13
		C162.24,149.04,143.11,145.36,143.11,145.36z"/>
	<g id="Ebene_4" class="st12">
		<path class="st13" d="M224.21,173.39c-1.15-5.53-6.86-26.98-6.86-26.98l-3.15,0.77c0,0,0.33,14.54-5.78,25.45
			c-5.43,4.75-8.29,8.73-14.84,11.35c-6.05,2.42-19.44,4.19-19.44,4.19s5.7,2.57,16.34,2.74c4.04,0.07,6.83-0.33,10.74-1.13
			c-6.77,3.82-14.7,4.93-22.08,5.58c-21.58,1.92-42.93-7.63-42.93-7.63l-2.07,7.2c0,0,28.34,12.85,50.24,10.91
			s43.29-13.56,43.29-13.56S225.35,178.92,224.21,173.39z"/>
		<g>
			<path class="st13" d="M142.6,162.55c3.18,1.18,6.41,2.1,9.68,2.87c3.26,0.8,6.56,1.38,9.86,1.88c6.61,0.95,13.28,1.47,19.95,1.4
				c1.67-0.03,3.34-0.03,5.01-0.08l5.02-0.25c3.34-0.18,6.68-0.46,10.01-0.84c3.32-0.4,6.64-0.86,9.91-1.55
				c3.27-0.69,6.55-1.49,9.63-2.9c-2.77,2-6.02,3.22-9.25,4.33c-3.26,1.05-6.59,1.84-9.95,2.44c-6.73,1.21-13.52,1.78-20.37,1.85
				c-1.71-0.01-3.42-0.09-5.13-0.13c-1.71-0.12-3.42-0.2-5.12-0.37c-3.4-0.41-6.8-0.83-10.13-1.61c-3.34-0.71-6.64-1.63-9.86-2.77
				C148.67,165.65,145.5,164.33,142.6,162.55z"/>
		</g>
		<g>
			<path class="st13" d="M139.06,177.68c6.22,2.51,12.56,4.54,18.99,6.14c3.22,0.78,6.45,1.48,9.7,1.98
				c1.62,0.29,3.26,0.46,4.89,0.7c1.63,0.17,3.27,0.3,4.91,0.43c1.64,0.05,3.28,0.17,4.92,0.18c1.64-0.04,3.27-0.03,4.93-0.11
				c3.31-0.14,6.62-0.37,9.91-0.72c3.28-0.37,6.57-0.79,9.78-1.54c1.6-0.38,3.21-0.79,4.75-1.36c0.78-0.28,1.54-0.6,2.28-0.97
				c0.73-0.37,1.47-0.78,2.07-1.37c-1.02,1.36-2.53,2.27-4,3.09c-1.5,0.83-3.09,1.42-4.68,2.02c-3.22,1.11-6.53,1.87-9.87,2.44
				l-2.5,0.42l-2.52,0.31c-1.68,0.23-3.36,0.33-5.04,0.5c-1.68,0.15-3.4,0.13-5.1,0.21c-1.7,0.02-3.41-0.08-5.11-0.12
				c-6.8-0.47-13.5-1.81-19.95-3.86c-3.22-1.02-6.39-2.22-9.46-3.61C144.89,181.04,141.86,179.54,139.06,177.68z"/>
		</g>
	</g>
	<g>
		<path class="st13" d="M118.53,135.56c4.53,2.16,9.06,4.23,13.79,5.75c4.71,1.55,9.58,2.66,14.5,3.47
			c4.92,0.81,9.89,1.39,14.88,1.75c4.99,0.41,9.99,0.61,15,0.77c2.5,0.07,5.01,0.09,7.52,0.14c2.51,0.03,5.01-0.02,7.51-0.02
			c5-0.13,10-0.34,14.97-0.84c4.97-0.46,9.93-1.14,14.79-2.19c2.42-0.55,4.84-1.13,7.19-1.9c1.18-0.36,2.34-0.79,3.47-1.25
			c1.12-0.44,2.28-0.99,3.2-1.54l1.14,1.69c-0.64,0.4-1.19,0.68-1.79,0.96c-0.59,0.28-1.18,0.54-1.78,0.78
			c-1.2,0.48-2.4,0.92-3.62,1.29c-2.43,0.79-4.91,1.38-7.39,1.93c-4.97,1.06-9.99,1.73-15.02,2.19
			c-10.07,0.96-20.18,0.97-30.24,0.72c-5.04-0.15-10.07-0.35-15.1-0.76c-5.03-0.36-10.06-0.94-15.05-1.75
			c-4.99-0.82-9.96-1.94-14.8-3.52c-4.85-1.55-9.49-3.67-14.03-5.83L118.53,135.56z"/>
	</g>
	<g>
		<path class="st13" d="M104.8,170.6c4.55,4.77,9.75,9.02,15.16,12.86c5.43,3.83,11.15,7.25,17.12,10.12
			c11.94,5.74,24.94,9.33,38.16,9.95c13.17,0.49,26.61-1.35,38.78-6.43c6.06-2.57,11.84-5.86,16.91-10.07
			c2.53-2.1,4.93-4.37,7.12-6.83c2.15-2.46,4.19-5.15,5.7-7.96l1.48,0.7c-1.56,3.14-3.54,5.88-5.71,8.53
			c-2.18,2.62-4.59,5.05-7.19,7.25c-5.19,4.42-11.08,8.01-17.35,10.66c-3.12,1.36-6.35,2.46-9.63,3.38c-3.27,0.96-6.6,1.62-9.95,2.2
			c-6.71,1.03-13.51,1.42-20.3,1.1c-6.79-0.32-13.52-1.47-20.07-3.21c-3.27-0.89-6.5-1.93-9.66-3.16c-3.17-1.19-6.26-2.58-9.3-4.07
			c-6.06-3.01-11.88-6.51-17.31-10.53c-5.43-4.02-10.58-8.39-15.2-13.4L104.8,170.6z"/>
	</g>
	<g class="st14">
		<path class="st13" d="M152.97,197.46c5.18,0.48,10.33,0.91,15.48,1.21c2.58,0.13,5.15,0.27,7.72,0.29
			c2.56,0.04,5.16,0.07,7.68-0.11c2.52-0.11,5.04-0.55,7.53-1.07c2.51-0.48,4.97-1.22,7.44-1.93c4.91-1.51,9.76-3.32,14.55-5.33
			c-4.41,2.77-9.14,5.02-14.04,6.84c-4.91,1.79-10.03,3.18-15.35,3.52c-5.27,0.27-10.48-0.04-15.66-0.63
			C163.14,199.65,158.01,198.77,152.97,197.46z"/>
	</g>
	<g class="st15">
		<path class="st13" d="M143.93,148.49c2.66,1.29,5.16,2.8,7.64,4.31l3.69,2.28c1.23,0.76,2.42,1.51,3.69,2.08
			c1.27,0.6,2.59,1.13,3.95,1.59c1.35,0.49,2.73,0.91,4.12,1.31c2.78,0.82,5.6,1.52,8.44,2.22c-2.93-0.07-5.85-0.4-8.75-0.93
			c-2.89-0.53-5.77-1.27-8.55-2.44c-2.81-1.22-5.24-2.87-7.6-4.62C148.21,152.53,145.96,150.65,143.93,148.49z"/>
	</g>
	<g class="st16">
		<path class="st13" d="M216.76,148.43c-0.95,1.28-2.1,2.35-3.33,3.32c-1.23,0.96-2.54,1.83-3.98,2.52c-1.46,0.7-3,1.13-4.55,1.41
			c-1.55,0.27-3.12,0.38-4.71,0.19c2.88-1.28,5.75-2.19,8.37-3.44c1.32-0.63,2.66-1.33,4.01-2.02
			C213.93,149.73,215.3,149.04,216.76,148.43z"/>
	</g>
	<g class="st14">
		<path class="st13" d="M194.53,189.07c2.48-1,4.99-1.82,7.5-2.62l3.75-1.19c1.25-0.37,2.49-0.78,3.68-1.22
			c2.41-0.89,4.72-2.01,6.95-3.3c2.2-1.32,4.34-2.81,6.2-4.71c-1.2,2.41-3.19,4.37-5.33,6.01c-2.16,1.64-4.58,2.92-7.1,3.9
			c-2.57,0.94-5.14,1.56-7.74,2.08C199.83,188.53,197.2,188.92,194.53,189.07z"/>
	</g>
	<g>
		<path class="st17" d="M104.95,170.12c2.26,1.99,4.56,3.94,6.88,5.86c2.33,1.91,4.67,3.8,7.09,5.56c2.41,1.73,4.96,3.38,7.5,4.97
			c2.54,1.59,5.14,3.14,7.74,4.57l-0.98,1.76c-2.64-1.54-5.2-3.16-7.73-4.83c-2.53-1.69-5.02-3.37-7.46-5.24
			c-2.41-1.86-4.71-3.83-6.99-5.82c-2.28-2-4.52-4.02-6.73-6.08L104.95,170.12z"/>
	</g>
	<g>
		<path class="st17" d="M225.67,188.59c1.71-1.08,3.42-2.36,5.06-3.65c1.65-1.3,3.27-2.66,4.82-4.06c1.52-1.41,2.93-2.98,4.3-4.57
			c1.37-1.6,2.7-3.25,3.98-4.92l0.81,0.59c-1.23,1.75-2.5,3.45-3.82,5.13c-1.33,1.67-2.69,3.32-4.23,4.86
			c-1.53,1.51-3.09,2.96-4.72,4.36c-1.63,1.41-3.26,2.75-5.08,4.03L225.67,188.59z"/>
	</g>
	<g>
		<path class="st13" d="M132.09,193.39c1.53-3.82,3-7.71,4.34-11.61c1.33-3.89,2.65-7.87,3.54-11.81c0.9-3.98,1.36-8.09,1.75-12.2
			c0.36-4.11,0.58-8.26,0.7-12.39l1.37-0.03c0.22,4.2,0.2,8.38-0.01,12.57c-0.2,4.19-0.66,8.38-1.49,12.55
			c-0.43,2.1-1.03,4.13-1.65,6.13c-0.63,2-1.27,4-2,5.97c-1.46,3.94-3.03,7.81-4.88,11.59L132.09,193.39z"/>
	</g>
	<g>
		<path class="st13" d="M224.81,193.11c-0.29-3.87-0.62-7.76-1-11.63c-0.41-3.87-0.81-7.73-1.44-11.54
			c-0.66-3.79-1.44-7.59-2.41-11.35c-0.92-3.77-1.95-7.53-3-11.28l1.08-0.4c1.58,3.62,2.88,7.32,4.06,11.09
			c1.11,3.78,2.15,7.6,2.79,11.52c0.66,3.91,1.13,7.82,1.42,11.74c0.32,3.92,0.51,7.84,0.55,11.78L224.81,193.11z"/>
	</g>
	<path class="st18" d="M144.92,147.86c0,0,10.01,7.67,19.66,8.87c11.32,1.41,26.81-5.79,26.81-5.79s-12,1-24.06-0.02
		C155.91,149.95,144.92,147.86,144.92,147.86z"/>
	<path class="st19" d="M145.82,153.02c0,0,3.07,5.9,10.11,9.56s18.66,3.72,18.66,3.72s-12.07-3.74-17.11-6.08
		C152.43,157.87,145.82,153.02,145.82,153.02z"/>
	<g>
		<path class="st17" d="M118.11,136.75c1.8,1.17,3.79,2.19,5.79,3.09c2.01,0.91,4.07,1.67,6.17,2.34c2.11,0.64,4.27,1.23,6.4,1.84
			l6.41,1.83l-0.49,1.95l-6.42-2c-2.14-0.68-4.28-1.32-6.42-2.02c-2.14-0.74-4.24-1.58-6.28-2.56c-2.05-0.98-4.02-2.05-5.93-3.36
			L118.11,136.75z"/>
	</g>
	<g>
		<path class="st17" d="M218.03,146.46c1.49-0.24,3.08-0.57,4.62-0.91c1.54-0.34,3.12-0.69,4.62-1.09c1.51-0.41,3-0.89,4.46-1.45
			c1.45-0.56,2.92-1.19,4.26-1.9l0.87,1.56c-1.48,0.8-2.94,1.44-4.46,2.05c-1.51,0.59-3.06,1.12-4.62,1.56
			c-1.59,0.44-3.12,0.79-4.69,1.16c-1.58,0.36-3.11,0.71-4.77,0.99L218.03,146.46z"/>
	</g>
</g>
</svg>
